<svg xmlns="http://www.w3.org/2000/svg" xmlns:xlink="http://www.w3.org/1999/xlink" width="500" zoomAndPan="magnify" viewBox="0 0 375 374.999991" height="500" preserveAspectRatio="xMidYMid meet" version="1.0"><defs><g/><clipPath id="45866bca71"><path d="M 147.289062 251 L 227.539062 251 L 227.539062 266.953125 L 147.289062 266.953125 Z M 147.289062 251 " clip-rule="nonzero"/></clipPath><clipPath id="fb472b1356"><path d="M 152 91.453125 L 223 91.453125 L 223 189 L 152 189 Z M 152 91.453125 " clip-rule="nonzero"/></clipPath><clipPath id="53f9aa45c3"><path d="M 41.023438 197.472656 L 72.523438 197.472656 L 72.523438 227.472656 L 41.023438 227.472656 Z M 41.023438 197.472656 " clip-rule="nonzero"/></clipPath><clipPath id="f20910e26f"><path d="M 302.304688 197.472656 L 333.804688 197.472656 L 333.804688 227.472656 L 302.304688 227.472656 Z M 302.304688 197.472656 " clip-rule="nonzero"/></clipPath></defs><path fill="#ffffff" d="M 187.515625 355.28125 C 95 355.28125 19.75 280.027344 19.75 187.515625 C 19.75 95 95 19.75 187.515625 19.75 C 280.027344 19.75 355.28125 95 355.28125 187.515625 C 355.28125 280.027344 280.027344 355.28125 187.515625 355.28125 Z M 187.515625 24.054688 C 97.367188 24.054688 24.054688 97.367188 24.054688 187.515625 C 24.054688 277.660156 97.367188 350.976562 187.515625 350.976562 C 277.660156 350.976562 350.976562 277.617188 350.976562 187.515625 C 350.976562 97.367188 277.660156 24.054688 187.515625 24.054688 Z M 187.515625 24.054688 " fill-opacity="1" fill-rule="nonzero"/><path fill="#ffffff" d="M 187.515625 294.796875 C 128.363281 294.796875 80.234375 246.664062 80.234375 187.515625 C 80.234375 128.363281 128.363281 80.234375 187.515625 80.234375 C 246.664062 80.234375 294.796875 128.363281 294.796875 187.515625 C 294.796875 246.664062 246.664062 294.796875 187.515625 294.796875 Z M 187.515625 84.539062 C 130.730469 84.539062 84.539062 130.730469 84.539062 187.515625 C 84.539062 244.296875 130.730469 290.492188 187.515625 290.492188 C 244.296875 290.492188 290.492188 244.296875 290.492188 187.515625 C 290.492188 130.730469 244.296875 84.539062 187.515625 84.539062 Z M 187.515625 84.539062 " fill-opacity="1" fill-rule="nonzero"/><path fill="#5ce1e6" d="M 224.710938 246.488281 C 224.234375 243.304688 223.535156 238.558594 223.535156 238.546875 C 218.609375 238.851562 213.355469 239.101562 207.890625 239.273438 C 207.820312 239.273438 207.753906 239.285156 207.6875 239.285156 C 201.238281 239.488281 194.46875 239.601562 187.464844 239.601562 C 180.542969 239.601562 173.820312 239.488281 167.425781 239.285156 C 167.359375 239.285156 167.292969 239.285156 167.222656 239.285156 C 161.800781 239.101562 156.605469 238.863281 151.714844 238.570312 C 151.714844 238.625 150.921875 243.398438 150.402344 246.558594 C 159.40625 248.382812 171.820312 249.753906 187.398438 249.753906 C 203.15625 249.753906 215.683594 248.347656 224.710938 246.488281 " fill-opacity="1" fill-rule="nonzero"/><g clip-path="url(#45866bca71)"><path fill="#5ce1e6" d="M 225.558594 251.136719 C 213.222656 253.5625 197.996094 254.398438 187.558594 254.398438 C 177.1875 254.398438 162.09375 253.570312 149.804688 251.179688 L 147.457031 265.425781 C 159.191406 266.253906 172.941406 266.738281 187.636719 266.738281 C 202.265625 266.738281 215.957031 266.253906 227.660156 265.4375 L 225.558594 251.136719 " fill-opacity="1" fill-rule="nonzero"/></g><path fill="#5ce1e6" d="M 187.558594 161.324219 C 180.8125 180.441406 172.113281 191.488281 161.65625 194.230469 C 161.585938 194.242188 161.519531 194.265625 161.460938 194.273438 C 164.152344 207.589844 165.722656 221.242188 166.625 231.5 C 166.683594 231.511719 166.761719 231.511719 166.828125 231.511719 C 173.574219 231.738281 180.585938 231.859375 187.636719 231.859375 C 194.628906 231.859375 201.574219 231.738281 208.285156 231.511719 C 208.351562 231.511719 208.433594 231.511719 208.488281 231.511719 C 209.390625 221.242188 210.960938 207.601562 213.652344 194.273438 C 213.59375 194.265625 213.527344 194.242188 213.460938 194.230469 C 203 191.488281 194.300781 180.441406 187.558594 161.324219 " fill-opacity="1" fill-rule="nonzero"/><g clip-path="url(#fb472b1356)"><path fill="#5ce1e6" d="M 152.515625 164.699219 C 155.65625 171.464844 158.152344 179.644531 160.140625 188.214844 C 160.207031 188.203125 160.265625 188.191406 160.332031 188.167969 C 169.914062 185.472656 178.28125 172.40625 184.585938 150.242188 L 187.558594 139.804688 L 190.527344 150.242188 C 196.832031 172.40625 205.203125 185.472656 214.78125 188.167969 C 214.847656 188.191406 214.90625 188.203125 214.972656 188.214844 C 216.960938 179.644531 219.457031 171.464844 222.597656 164.699219 C 222.675781 164.542969 222.753906 164.359375 222.835938 164.203125 L 222.855469 164.132812 L 222.824219 164.089844 C 214.191406 154.433594 207.664062 145.347656 202.703125 136.984375 C 190.59375 116.566406 187.941406 100.519531 187.648438 91.375 L 187.464844 91.375 C 187.171875 100.519531 184.519531 116.566406 172.421875 136.984375 C 167.449219 145.347656 160.921875 154.433594 152.289062 164.089844 L 152.257812 164.132812 L 152.277344 164.203125 C 152.359375 164.359375 152.4375 164.542969 152.515625 164.699219 " fill-opacity="1" fill-rule="nonzero"/></g><g clip-path="url(#53f9aa45c3)"><path fill="#5ce1e6" d="M 56.816406 197.570312 L 61.667969 207.410156 L 72.523438 208.988281 L 64.667969 216.652344 L 66.527344 227.46875 L 56.816406 222.363281 L 47.097656 227.46875 L 48.949219 216.652344 L 41.097656 208.988281 L 51.957031 207.410156 Z M 56.816406 197.570312 " fill-opacity="1" fill-rule="nonzero"/><path fill="#5ce1e6" d="M 56.738281 197.476562 L 61.597656 207.316406 L 72.453125 208.894531 L 64.597656 216.558594 L 66.453125 227.371094 L 56.738281 222.269531 L 47.027344 227.371094 L 48.882812 216.558594 L 41.023438 208.894531 L 51.878906 207.316406 Z M 56.738281 197.476562 " fill-opacity="1" fill-rule="nonzero"/><path fill="#5ce1e6" d="M 56.738281 197.476562 L 61.597656 207.316406 L 72.453125 208.894531 L 64.597656 216.558594 L 66.453125 227.371094 L 56.738281 222.269531 L 47.027344 227.371094 L 48.882812 216.558594 L 41.023438 208.894531 L 51.878906 207.316406 Z M 56.738281 197.476562 " fill-opacity="1" fill-rule="nonzero"/><path fill="#5ce1e6" d="M 56.738281 197.476562 L 61.597656 207.316406 L 72.453125 208.894531 L 64.597656 216.558594 L 66.453125 227.371094 L 56.738281 222.269531 L 47.027344 227.371094 L 48.882812 216.558594 L 41.023438 208.894531 L 51.878906 207.316406 Z M 56.738281 197.476562 " fill-opacity="1" fill-rule="nonzero"/></g><g clip-path="url(#f20910e26f)"><path fill="#5ce1e6" d="M 318.09375 197.570312 L 322.945312 207.410156 L 333.804688 208.988281 L 325.945312 216.652344 L 327.804688 227.46875 L 318.09375 222.363281 L 308.375 227.46875 L 310.230469 216.652344 L 302.378906 208.988281 L 313.234375 207.410156 Z M 318.09375 197.570312 " fill-opacity="1" fill-rule="nonzero"/><path fill="#5ce1e6" d="M 318.019531 197.476562 L 322.878906 207.316406 L 333.734375 208.894531 L 325.875 216.558594 L 327.730469 227.371094 L 318.019531 222.269531 L 308.304688 227.371094 L 310.160156 216.558594 L 302.304688 208.894531 L 313.160156 207.316406 Z M 318.019531 197.476562 " fill-opacity="1" fill-rule="nonzero"/><path fill="#5ce1e6" d="M 318.019531 197.476562 L 322.878906 207.316406 L 333.734375 208.894531 L 325.875 216.558594 L 327.730469 227.371094 L 318.019531 222.269531 L 308.304688 227.371094 L 310.160156 216.558594 L 302.304688 208.894531 L 313.160156 207.316406 Z M 318.019531 197.476562 " fill-opacity="1" fill-rule="nonzero"/><path fill="#5ce1e6" d="M 318.019531 197.476562 L 322.878906 207.316406 L 333.734375 208.894531 L 325.875 216.558594 L 327.730469 227.371094 L 318.019531 222.269531 L 308.304688 227.371094 L 310.160156 216.558594 L 302.304688 208.894531 L 313.160156 207.316406 Z M 318.019531 197.476562 " fill-opacity="1" fill-rule="nonzero"/></g><g fill="#ffffff" fill-opacity="1"><g transform="translate(61.933144, 181.475268)"><g/></g></g><g fill="#ffffff" fill-opacity="1"><g transform="translate(62.094305, 173.100587)"><g><path d="M 1.1875 -5.078125 L 0.53125 -2.234375 L -21.625 -7.4375 L -20.96875 -10.28125 L -5.671875 -14.8125 L -5.640625 -14.953125 L -17.3125 -25.8125 L -16.640625 -28.671875 L 5.515625 -23.46875 L 4.84375 -20.609375 L -8.3125 -23.703125 L -12 -24.703125 L -12.03125 -24.578125 L -1.484375 -14.78125 L -1.875 -13.125 L -15.6875 -9.046875 L -15.703125 -8.921875 L -11.96875 -8.171875 Z M 1.1875 -5.078125 "/></g></g></g><g fill="#ffffff" fill-opacity="1"><g transform="translate(68.810951, 146.646463)"><g><path d="M -14.703125 -23.34375 L -12.140625 -22.234375 L -16.25 -12.71875 L -9.625 -9.84375 L -5.921875 -18.421875 L -3.40625 -17.34375 L -7.109375 -8.765625 L -0.484375 -5.890625 L 3.625 -15.40625 L 6.1875 -14.296875 L 0.90625 -2.109375 L -19.984375 -11.15625 Z M -14.703125 -23.34375 "/></g></g></g><g fill="#ffffff" fill-opacity="1"><g transform="translate(76.000332, 129.774087)"><g><path d="M 2.828125 -4.390625 L 1.25 -1.9375 L -17.90625 -14.25 L -16 -17.234375 L 4.890625 -16.96875 L 4.953125 -17.078125 L 1.21875 -19.34375 L -10 -26.546875 L -8.421875 -29 L 10.734375 -16.6875 L 9.078125 -14.109375 L -12.78125 -14.421875 L -12.859375 -14.3125 L -9.109375 -12.0625 Z M 2.828125 -4.390625 "/></g></g></g><g fill="#ffffff" fill-opacity="1"><g transform="translate(88.794526, 110.411492)"><g><path d="M -8.09375 -20.828125 L 6.734375 -7.453125 L 4.765625 -5.296875 L -10.0625 -18.671875 L -14.3125 -13.9375 L -16.390625 -15.8125 L -5.921875 -27.4375 L -3.84375 -25.5625 Z M -8.09375 -20.828125 "/></g></g></g><g fill="#ffffff" fill-opacity="1"><g transform="translate(100.743716, 96.725751)"><g><path d="M 12.390625 -24.078125 C 14.460938 -21.421875 15.3125 -18.503906 14.9375 -15.328125 C 14.5625 -12.128906 13.070312 -9.519531 10.46875 -7.5 C 7.863281 -5.46875 4.972656 -4.671875 1.796875 -5.109375 C -1.378906 -5.515625 -4.003906 -7.046875 -6.078125 -9.703125 C -8.140625 -12.359375 -8.976562 -15.273438 -8.59375 -18.453125 C -8.226562 -21.640625 -6.742188 -24.25 -4.140625 -26.28125 C -1.523438 -28.3125 1.375 -29.101562 4.5625 -28.65625 C 7.726562 -28.25 10.335938 -26.722656 12.390625 -24.078125 Z M -3.703125 -11.546875 C -2.078125 -9.472656 -0.09375 -8.257812 2.25 -7.90625 C 4.625 -7.59375 6.789062 -8.195312 8.75 -9.71875 C 10.707031 -11.238281 11.816406 -13.179688 12.078125 -15.546875 C 12.359375 -17.921875 11.679688 -20.15625 10.046875 -22.25 C 8.421875 -24.34375 6.425781 -25.539062 4.0625 -25.84375 C 1.695312 -26.1875 -0.460938 -25.597656 -2.421875 -24.078125 C -4.378906 -22.554688 -5.492188 -20.597656 -5.765625 -18.203125 C -6.003906 -15.835938 -5.316406 -13.617188 -3.703125 -11.546875 Z M -3.703125 -11.546875 "/></g></g></g><g fill="#ffffff" fill-opacity="1"><g transform="translate(122.022468, 80.688012)"><g><path d="M -4.625 -20.125 L -0.90625 -13.015625 L 3.265625 -15.1875 C 4.316406 -15.738281 5.03125 -16.546875 5.40625 -17.609375 C 5.78125 -18.679688 5.703125 -19.726562 5.171875 -20.75 C 4.679688 -21.675781 3.90625 -22.3125 2.84375 -22.65625 C 1.789062 -23.007812 0.742188 -22.921875 -0.296875 -22.390625 Z M 4.625 -2.421875 L 2.03125 -1.0625 L -8.515625 -21.234375 L -1.640625 -24.828125 C 0.0976562 -25.734375 1.882812 -25.929688 3.71875 -25.421875 C 5.5625 -24.921875 6.925781 -23.828125 7.8125 -22.140625 C 8.539062 -20.742188 8.726562 -19.265625 8.375 -17.703125 C 8.03125 -16.148438 7.242188 -14.859375 6.015625 -13.828125 L 6 -13.71875 L 15.953125 -8.46875 L 16.015625 -8.359375 L 12.9375 -6.765625 L 3.21875 -12.09375 L 0.359375 -10.59375 Z M 4.625 -2.421875 "/></g></g></g><g fill="#ffffff" fill-opacity="1"><g transform="translate(139.442731, 71.722098)"><g><path d="M 13.484375 -11.0625 C 14.128906 -9.164062 13.960938 -7.414062 12.984375 -5.8125 C 11.960938 -4.195312 10.453125 -3.046875 8.453125 -2.359375 C 6.660156 -1.742188 4.898438 -1.722656 3.171875 -2.296875 C 1.453125 -2.867188 0.0195312 -3.96875 -1.125 -5.59375 L 1.171875 -7.578125 C 1.566406 -7.003906 2.007812 -6.515625 2.5 -6.109375 C 3 -5.703125 3.53125 -5.382812 4.09375 -5.15625 C 4.65625 -4.9375 5.234375 -4.8125 5.828125 -4.78125 C 6.421875 -4.75 7.003906 -4.832031 7.578125 -5.03125 C 8.835938 -5.46875 9.757812 -6.148438 10.34375 -7.078125 C 10.925781 -8.003906 11.035156 -9.007812 10.671875 -10.09375 C 10.359375 -10.988281 9.757812 -11.640625 8.875 -12.046875 C 8.03125 -12.453125 6.65625 -12.65625 4.75 -12.65625 C 2.8125 -12.6875 1.597656 -12.742188 1.109375 -12.828125 C -1.578125 -13.203125 -3.3125 -14.519531 -4.09375 -16.78125 C -4.632812 -18.363281 -4.460938 -19.9375 -3.578125 -21.5 C -2.691406 -23.0625 -1.316406 -24.160156 0.546875 -24.796875 C 2.191406 -25.367188 3.757812 -25.4375 5.25 -25 C 6.75 -24.59375 7.910156 -23.835938 8.734375 -22.734375 L 6.515625 -20.75 C 5.992188 -21.488281 5.285156 -22 4.390625 -22.28125 C 3.492188 -22.570312 2.539062 -22.539062 1.53125 -22.1875 C 0.445312 -21.8125 -0.363281 -21.191406 -0.90625 -20.328125 C -1.457031 -19.515625 -1.578125 -18.65625 -1.265625 -17.75 C -1.015625 -17.007812 -0.503906 -16.46875 0.265625 -16.125 C 1.085938 -15.8125 2.707031 -15.644531 5.125 -15.625 C 7.550781 -15.644531 9.414062 -15.273438 10.71875 -14.515625 C 12.019531 -13.765625 12.941406 -12.613281 13.484375 -11.0625 Z M 13.484375 -11.0625 "/></g></g></g><g fill="#ffffff" fill-opacity="1"><g transform="translate(157.087861, 65.569226)"><g><path d="M 5.140625 -0.875 L 2.265625 -0.390625 L -1.546875 -22.828125 L 1.328125 -23.3125 L 2.96875 -13.6875 L 14.1875 -15.59375 L 12.546875 -25.21875 L 15.421875 -25.703125 L 19.234375 -3.265625 L 16.359375 -2.78125 L 14.640625 -12.90625 L 3.421875 -11 Z M 5.140625 -0.875 "/></g></g></g><g fill="#ffffff" fill-opacity="1"><g transform="translate(180.097953, 62.210558)"><g><path d="M 5.21875 -0.21875 L 2.296875 -0.09375 L 1.34375 -22.84375 L 4.265625 -22.96875 Z M 5.21875 -0.21875 "/></g></g></g><g fill="#ffffff" fill-opacity="1"><g transform="translate(189.21464, 61.625921)"><g><path d="M 5.859375 -8.828125 L 5.203125 0.375 L 2.296875 0.15625 L 3.90625 -22.546875 L 11.625 -22 C 13.59375 -21.851562 15.222656 -21.082031 16.515625 -19.6875 C 17.804688 -18.28125 18.382812 -16.632812 18.25 -14.75 C 18.113281 -12.820312 17.304688 -11.257812 15.828125 -10.0625 C 14.378906 -8.875 12.660156 -8.351562 10.671875 -8.5 Z M 6.609375 -19.546875 L 6.046875 -11.609375 L 10.921875 -11.265625 C 12.085938 -11.191406 13.078125 -11.519531 13.890625 -12.25 C 14.742188 -12.976562 15.207031 -13.878906 15.28125 -14.953125 C 15.351562 -16.003906 15.023438 -16.953125 14.296875 -17.796875 C 13.585938 -18.660156 12.648438 -19.128906 11.484375 -19.203125 Z M 6.609375 -19.546875 "/></g></g></g><g fill="#ffffff" fill-opacity="1"><g transform="translate(208.68612, 63.393128)"><g/></g></g><g fill="#ffffff" fill-opacity="1"><g transform="translate(217.227352, 64.739743)"><g><path d="M 7.65625 -7.328125 L 5 1.5 L 2.203125 0.65625 L 8.75 -21.15625 L 16.171875 -18.921875 C 18.054688 -18.359375 19.472656 -17.25 20.421875 -15.59375 C 21.378906 -13.925781 21.585938 -12.191406 21.046875 -10.390625 C 20.492188 -8.535156 19.359375 -7.191406 17.640625 -6.359375 C 15.972656 -5.503906 14.1875 -5.363281 12.28125 -5.9375 Z M 10.734375 -17.625 L 8.453125 -10.015625 L 13.140625 -8.609375 C 14.253906 -8.273438 15.289062 -8.375 16.25 -8.90625 C 17.226562 -9.425781 17.875 -10.207031 18.1875 -11.25 C 18.488281 -12.257812 18.375 -13.253906 17.84375 -14.234375 C 17.34375 -15.222656 16.535156 -15.882812 15.421875 -16.21875 Z M 10.734375 -17.625 "/></g></g></g><g fill="#ffffff" fill-opacity="1"><g transform="translate(235.536009, 70.310254)"><g><path d="M 13.28125 -15.8125 L 9.84375 -8.5625 L 14.09375 -6.546875 C 15.164062 -6.035156 16.238281 -5.953125 17.3125 -6.296875 C 18.394531 -6.648438 19.179688 -7.34375 19.671875 -8.375 C 20.117188 -9.320312 20.164062 -10.320312 19.8125 -11.375 C 19.457031 -12.4375 18.75 -13.21875 17.6875 -13.71875 Z M 4.71875 2.234375 L 2.078125 0.984375 L 11.84375 -19.578125 L 18.84375 -16.25 C 20.625 -15.40625 21.863281 -14.097656 22.5625 -12.328125 C 23.257812 -10.554688 23.195312 -8.8125 22.375 -7.09375 C 21.695312 -5.675781 20.632812 -4.632812 19.1875 -3.96875 C 17.738281 -3.300781 16.226562 -3.148438 14.65625 -3.515625 L 14.5625 -3.46875 L 16.359375 7.640625 L 16.3125 7.75 L 13.1875 6.25 L 11.59375 -4.703125 L 8.671875 -6.09375 Z M 4.71875 2.234375 "/></g></g></g><g fill="#ffffff" fill-opacity="1"><g transform="translate(253.101575, 78.374706)"><g><path d="M 26.59375 5.09375 C 24.625 7.832031 22.066406 9.46875 18.921875 10 C 15.753906 10.539062 12.832031 9.851562 10.15625 7.9375 C 7.476562 6.007812 5.890625 3.457031 5.390625 0.28125 C 4.890625 -2.875 5.625 -5.820312 7.59375 -8.5625 C 9.5625 -11.289062 12.117188 -12.921875 15.265625 -13.453125 C 18.429688 -14.003906 21.351562 -13.316406 24.03125 -11.390625 C 26.71875 -9.460938 28.300781 -6.90625 28.78125 -3.71875 C 29.28125 -0.5625 28.550781 2.375 26.59375 5.09375 Z M 10.03125 -6.8125 C 8.5 -4.675781 7.894531 -2.429688 8.21875 -0.078125 C 8.59375 2.296875 9.785156 4.207031 11.796875 5.65625 C 13.804688 7.101562 15.984375 7.609375 18.328125 7.171875 C 20.679688 6.773438 22.628906 5.5 24.171875 3.34375 C 25.722656 1.195312 26.316406 -1.054688 25.953125 -3.421875 C 25.597656 -5.773438 24.414062 -7.675781 22.40625 -9.125 C 20.394531 -10.570312 18.207031 -11.085938 15.84375 -10.671875 C 13.5 -10.234375 11.5625 -8.945312 10.03125 -6.8125 Z M 10.03125 -6.8125 "/></g></g></g><g fill="#ffffff" fill-opacity="1"><g transform="translate(274.511289, 93.858452)"><g><path d="M 24.078125 10.765625 C 21.722656 12.921875 19.21875 13.9375 16.5625 13.8125 C 13.46875 13.769531 10.75 12.472656 8.40625 9.921875 C 6.175781 7.492188 5.128906 4.660156 5.265625 1.421875 C 5.410156 -1.816406 6.71875 -4.570312 9.1875 -6.84375 C 11.65625 -9.101562 14.503906 -10.160156 17.734375 -10.015625 C 20.972656 -9.867188 23.707031 -8.582031 25.9375 -6.15625 C 27.070312 -4.914062 27.921875 -3.546875 28.484375 -2.046875 C 29.054688 -0.554688 29.265625 0.90625 29.109375 2.34375 L 26.15625 2.203125 C 26.289062 1.117188 26.160156 0.00390625 25.765625 -1.140625 C 25.367188 -2.285156 24.738281 -3.328125 23.875 -4.265625 C 22.195312 -6.085938 20.148438 -7.054688 17.734375 -7.171875 C 15.296875 -7.234375 13.117188 -6.382812 11.203125 -4.625 C 9.273438 -2.851562 8.242188 -0.757812 8.109375 1.65625 C 8.003906 4.082031 8.789062 6.207031 10.46875 8.03125 C 12.007812 9.707031 13.757812 10.671875 15.71875 10.921875 C 17.664062 11.171875 19.535156 10.628906 21.328125 9.296875 L 15.734375 3.203125 L 17.75 1.34375 L 25.21875 9.46875 C 24.851562 9.96875 24.472656 10.398438 24.078125 10.765625 Z M 24.078125 10.765625 "/></g></g></g><g fill="#ffffff" fill-opacity="1"><g transform="translate(292.041025, 113.560414)"><g><path d="M 19.671875 -6.25 L 12.890625 -1.984375 L 15.40625 2 C 16.039062 3 16.90625 3.644531 18 3.9375 C 19.101562 4.226562 20.140625 4.066406 21.109375 3.453125 C 21.992188 2.890625 22.566406 2.066406 22.828125 0.984375 C 23.085938 -0.0859375 22.90625 -1.117188 22.28125 -2.109375 Z M 2.78125 4.40625 L 1.21875 1.9375 L 20.46875 -10.21875 L 24.609375 -3.65625 C 25.660156 -2 26.003906 -0.238281 25.640625 1.625 C 25.285156 3.5 24.304688 4.945312 22.703125 5.96875 C 21.367188 6.8125 19.910156 7.125 18.328125 6.90625 C 16.753906 6.695312 15.398438 6.015625 14.265625 4.859375 L 14.15625 4.875 L 9.75 15.203125 L 9.640625 15.265625 L 7.796875 12.34375 L 12.3125 2.21875 L 10.578125 -0.515625 Z M 2.78125 4.40625 "/></g></g></g><g fill="#ffffff" fill-opacity="1"><g transform="translate(302.461261, 130.007002)"><g><path d="M 21.765625 2.28125 L 10.859375 2.828125 L 13.8125 9.796875 L 21.8125 2.390625 Z M 1.40625 3.34375 L 0.140625 0.34375 L 24.453125 -0.59375 L 25.75 2.453125 L 8.125 19.21875 L 6.859375 16.21875 L 11.6875 11.796875 L 7.96875 2.984375 Z M 1.40625 3.34375 "/></g></g></g><g fill="#ffffff" fill-opacity="1"><g transform="translate(311.200198, 150.262784)"><g><path d="M 1.078125 5.109375 L 0.46875 2.25 L 22.75 -2.4375 L 23.359375 0.421875 L 11.421875 11.015625 L 11.453125 11.15625 L 26.640625 16.03125 L 27.234375 18.90625 L 4.953125 23.59375 L 4.359375 20.71875 L 17.578125 17.9375 L 21.328125 17.28125 L 21.3125 17.15625 L 7.609375 12.75 L 7.265625 11.078125 L 18.03125 1.546875 L 18 1.421875 L 14.296875 2.328125 Z M 1.078125 5.109375 "/></g></g></g><g fill="#ffffff" fill-opacity="1"><g transform="translate(67.297859, 270.9729)"><g><path d="M 8.28125 11.046875 C 7.132812 9.640625 6.335938 8.140625 5.890625 6.546875 C 5.441406 4.960938 5.300781 3.375 5.46875 1.78125 C 5.644531 0.1875 6.128906 -1.335938 6.921875 -2.796875 C 7.722656 -4.265625 8.804688 -5.550781 10.171875 -6.65625 C 11.535156 -7.757812 13.007812 -8.550781 14.59375 -9.03125 C 16.1875 -9.507812 17.785156 -9.671875 19.390625 -9.515625 C 20.992188 -9.367188 22.523438 -8.910156 23.984375 -8.140625 C 25.453125 -7.378906 26.757812 -6.296875 27.90625 -4.890625 C 29.019531 -3.515625 29.804688 -2.023438 30.265625 -0.421875 C 30.734375 1.179688 30.875 2.78125 30.6875 4.375 C 30.5 5.976562 30.007812 7.507812 29.21875 8.96875 C 28.425781 10.425781 27.347656 11.707031 25.984375 12.8125 C 24.617188 13.914062 23.140625 14.707031 21.546875 15.1875 C 19.953125 15.675781 18.359375 15.84375 16.765625 15.6875 C 15.179688 15.53125 13.648438 15.0625 12.171875 14.28125 C 10.691406 13.5 9.394531 12.421875 8.28125 11.046875 Z M 11.109375 8.75 C 11.847656 9.675781 12.71875 10.414062 13.71875 10.96875 C 14.71875 11.519531 15.769531 11.847656 16.875 11.953125 C 17.988281 12.054688 19.113281 11.929688 20.25 11.578125 C 21.394531 11.234375 22.488281 10.640625 23.53125 9.796875 C 24.582031 8.941406 25.394531 7.992188 25.96875 6.953125 C 26.539062 5.910156 26.882812 4.835938 27 3.734375 C 27.125 2.628906 27.019531 1.53125 26.6875 0.4375 C 26.351562 -0.65625 25.816406 -1.664062 25.078125 -2.59375 C 24.316406 -3.519531 23.4375 -4.253906 22.4375 -4.796875 C 21.4375 -5.347656 20.382812 -5.675781 19.28125 -5.78125 C 18.175781 -5.894531 17.050781 -5.78125 15.90625 -5.4375 C 14.769531 -5.09375 13.675781 -4.492188 12.625 -3.640625 C 11.582031 -2.796875 10.773438 -1.847656 10.203125 -0.796875 C 9.628906 0.242188 9.28125 1.316406 9.15625 2.421875 C 9.03125 3.535156 9.132812 4.632812 9.46875 5.71875 C 9.800781 6.8125 10.347656 7.820312 11.109375 8.75 Z M 11.109375 8.75 "/></g></g></g><g fill="#ffffff" fill-opacity="1"><g transform="translate(88.73053, 295.885332)"><g><path d="M 1.890625 1.546875 L 17.25 -17.15625 L 23.71875 -11.84375 C 24.550781 -11.15625 25.222656 -10.363281 25.734375 -9.46875 C 26.242188 -8.582031 26.566406 -7.65625 26.703125 -6.6875 C 26.847656 -5.726562 26.789062 -4.765625 26.53125 -3.796875 C 26.28125 -2.835938 25.804688 -1.929688 25.109375 -1.078125 C 24.421875 -0.242188 23.625 0.390625 22.71875 0.828125 C 21.820312 1.273438 20.882812 1.523438 19.90625 1.578125 C 18.9375 1.628906 17.96875 1.488281 17 1.15625 C 16.03125 0.820312 15.128906 0.3125 14.296875 -0.375 L 10.765625 -3.265625 L 4.828125 3.96875 Z M 16.703125 -3.125 C 17.191406 -2.726562 17.691406 -2.453125 18.203125 -2.296875 C 18.722656 -2.148438 19.226562 -2.109375 19.71875 -2.171875 C 20.207031 -2.242188 20.664062 -2.394531 21.09375 -2.625 C 21.519531 -2.863281 21.875 -3.15625 22.15625 -3.5 C 22.457031 -3.863281 22.679688 -4.273438 22.828125 -4.734375 C 22.972656 -5.203125 23.023438 -5.675781 22.984375 -6.15625 C 22.941406 -6.644531 22.800781 -7.128906 22.5625 -7.609375 C 22.332031 -8.097656 21.972656 -8.539062 21.484375 -8.9375 L 17.875 -11.90625 L 13.09375 -6.09375 Z M 16.703125 -3.125 "/></g></g></g><g fill="#ffffff" fill-opacity="1"><g transform="translate(107.90819, 311.062996)"><g><path d="M 15.609375 -14.75 L 12.3125 -8.96875 L 20.859375 -4.078125 L 19.078125 -0.96875 L 10.53125 -5.859375 L 7.234375 -0.078125 L 16.71875 5.34375 L 14.90625 8.515625 L 2.109375 1.203125 L 14.125 -19.8125 L 26.921875 -12.5 L 25.09375 -9.328125 Z M 15.609375 -14.75 "/></g></g></g><g fill="#ffffff" fill-opacity="1"><g transform="translate(128.924141, 322.795825)"><g><path d="M 10.234375 -22.0625 L 14.546875 -20.5625 L 18.953125 -0.46875 L 19.140625 -0.390625 L 20.484375 -4.890625 L 24.703125 -17.046875 L 28.28125 -15.796875 L 20.34375 7.0625 L 16.578125 5.75 L 11.953125 -15.359375 L 11.765625 -15.421875 L 10.40625 -10.9375 L 5.90625 2.046875 L 2.296875 0.796875 Z M 10.234375 -22.0625 "/></g></g></g><g fill="#ffffff" fill-opacity="1"><g transform="translate(156.176445, 331.289207)"><g><path d="M 0 0 Z M 0 0 "/></g></g></g><g fill="#ffffff" fill-opacity="1"><g transform="translate(167.762868, 333.608929)"><g><path d="M 4.1875 -23.96875 L 18.875 -22.90625 L 18.609375 -19.265625 L 7.71875 -20.046875 L 7.21875 -13.140625 L 17.03125 -12.4375 L 16.765625 -8.84375 L 6.953125 -9.546875 L 6.234375 0.453125 L 2.4375 0.171875 Z M 4.1875 -23.96875 "/></g></g></g><g fill="#ffffff" fill-opacity="1"><g transform="translate(191.253449, 335.248671)"><g><path d="M 13.75 -1.15625 C 11.957031 -0.9375 10.265625 -1.054688 8.671875 -1.515625 C 7.085938 -1.984375 5.664062 -2.710938 4.40625 -3.703125 C 3.144531 -4.691406 2.101562 -5.910156 1.28125 -7.359375 C 0.46875 -8.816406 -0.046875 -10.414062 -0.265625 -12.15625 C -0.484375 -13.90625 -0.375 -15.578125 0.0625 -17.171875 C 0.5 -18.765625 1.207031 -20.203125 2.1875 -21.484375 C 3.164062 -22.773438 4.367188 -23.835938 5.796875 -24.671875 C 7.222656 -25.503906 8.832031 -26.03125 10.625 -26.25 C 12.382812 -26.46875 14.066406 -26.347656 15.671875 -25.890625 C 17.285156 -25.441406 18.71875 -24.710938 19.96875 -23.703125 C 21.226562 -22.691406 22.265625 -21.46875 23.078125 -20.03125 C 23.890625 -18.59375 24.40625 -17 24.625 -15.25 C 24.84375 -13.507812 24.734375 -11.832031 24.296875 -10.21875 C 23.867188 -8.613281 23.164062 -7.175781 22.1875 -5.90625 C 21.21875 -4.644531 20.007812 -3.59375 18.5625 -2.75 C 17.113281 -1.90625 15.507812 -1.375 13.75 -1.15625 Z M 13.296875 -4.78125 C 14.472656 -4.925781 15.5625 -5.273438 16.5625 -5.828125 C 17.5625 -6.390625 18.398438 -7.113281 19.078125 -8 C 19.753906 -8.882812 20.242188 -9.898438 20.546875 -11.046875 C 20.859375 -12.203125 20.929688 -13.445312 20.765625 -14.78125 C 20.597656 -16.125 20.222656 -17.3125 19.640625 -18.34375 C 19.066406 -19.382812 18.34375 -20.25 17.46875 -20.9375 C 16.59375 -21.625 15.601562 -22.113281 14.5 -22.40625 C 13.394531 -22.707031 12.253906 -22.785156 11.078125 -22.640625 C 9.890625 -22.492188 8.796875 -22.140625 7.796875 -21.578125 C 6.804688 -21.023438 5.972656 -20.304688 5.296875 -19.421875 C 4.617188 -18.535156 4.125 -17.519531 3.8125 -16.375 C 3.5 -15.226562 3.425781 -13.984375 3.59375 -12.640625 C 3.757812 -11.304688 4.132812 -10.117188 4.71875 -9.078125 C 5.300781 -8.035156 6.03125 -7.171875 6.90625 -6.484375 C 7.78125 -5.796875 8.765625 -5.300781 9.859375 -5 C 10.960938 -4.707031 12.109375 -4.632812 13.296875 -4.78125 Z M 13.296875 -4.78125 "/></g></g></g><g fill="#ffffff" fill-opacity="1"><g transform="translate(223.771041, 330.27105)"><g><path d="M -5.484375 -23.6875 L 2.609375 -26.4375 C 3.648438 -26.800781 4.679688 -26.960938 5.703125 -26.921875 C 6.734375 -26.890625 7.6875 -26.671875 8.5625 -26.265625 C 9.4375 -25.867188 10.203125 -25.304688 10.859375 -24.578125 C 11.523438 -23.847656 12.035156 -22.972656 12.390625 -21.953125 C 12.660156 -21.160156 12.78125 -20.367188 12.75 -19.578125 C 12.726562 -18.785156 12.570312 -18.023438 12.28125 -17.296875 C 12 -16.578125 11.613281 -15.90625 11.125 -15.28125 C 10.644531 -14.65625 10.070312 -14.125 9.40625 -13.6875 L 9.4375 -13.53125 L 18.78125 -6.59375 L 18.84375 -6.40625 L 14.609375 -4.96875 L 5.546875 -11.84375 L 2.890625 -10.9375 L 5.921875 -2.015625 L 2.3125 -0.78125 Z M 6.109375 -15.828125 C 6.648438 -16.015625 7.117188 -16.273438 7.515625 -16.609375 C 7.910156 -16.953125 8.222656 -17.335938 8.453125 -17.765625 C 8.679688 -18.191406 8.820312 -18.65625 8.875 -19.15625 C 8.9375 -19.664062 8.875 -20.191406 8.6875 -20.734375 C 8.539062 -21.148438 8.3125 -21.546875 8 -21.921875 C 7.695312 -22.304688 7.332031 -22.613281 6.90625 -22.84375 C 6.488281 -23.082031 6.015625 -23.226562 5.484375 -23.28125 C 4.953125 -23.34375 4.382812 -23.269531 3.78125 -23.0625 L -0.71875 -21.53125 L 1.734375 -14.34375 Z M 6.109375 -15.828125 "/></g></g></g><g fill="#ffffff" fill-opacity="1"><g transform="translate(246.900725, 321.673444)"><g><path d="M 0 0 Z M 0 0 "/></g></g></g><g fill="#ffffff" fill-opacity="1"><g transform="translate(257.83334, 316.578763)"><g><path d="M -5.6875 -25.375 L -2.0625 -27.828125 L 19.03125 -12.875 L 15.53125 -10.515625 L 10.234375 -14.4375 L 2.171875 -8.984375 L 3.828125 -2.59375 L 0.34375 -0.234375 Z M 7.21875 -16.59375 L 1.109375 -21.078125 L -1.265625 -22.90625 L -1.4375 -22.796875 L -0.625 -19.90625 L 1.28125 -12.578125 Z M 7.21875 -16.59375 "/></g></g></g><g fill="#ffffff" fill-opacity="1"><g transform="translate(280.949708, 300.081199)"><g><path d="M -15.140625 -19.046875 L -12.40625 -21.703125 L 1.9375 -6.984375 L 9.359375 -14.21875 L 11.90625 -11.59375 L 1.75 -1.703125 Z M -15.140625 -19.046875 "/></g></g></g><g fill="#ffffff" fill-opacity="1"><g transform="translate(296.595498, 284.324055)"><g><path d="M -17.890625 -16.484375 L -15.609375 -19.53125 L 0.828125 -7.1875 L 7.046875 -15.484375 L 9.96875 -13.296875 L 1.46875 -1.953125 Z M -17.890625 -16.484375 "/></g></g></g></svg>